solid ASCII
  facet normal -7.071068e-01 -7.850462e-17 -7.071068e-01
    outer loop
      vertex   -1.200000e+00 -1.000000e+00 0.000000e+00
      vertex   -1.500000e+00 -1.000000e+00 3.000000e-01
      vertex   -1.200000e+00 1.000000e+00 0.000000e+00
    endloop
  endfacet
  facet normal -7.071068e-01 0.000000e+00 -7.071068e-01
    outer loop
      vertex   -1.200000e+00 1.000000e+00 0.000000e+00
      vertex   -1.500000e+00 -1.000000e+00 3.000000e-01
      vertex   -1.500000e+00 1.000000e+00 3.000000e-01
    endloop
  endfacet
  facet normal 0.000000e+00 1.000000e+00 -0.000000e+00
    outer loop
      vertex   -1.200000e+00 1.000000e+00 0.000000e+00
      vertex   -1.500000e+00 1.000000e+00 3.000000e-01
      vertex   1.500000e+00 1.000000e+00 0.000000e+00
    endloop
  endfacet
  facet normal 0.000000e+00 1.000000e+00 0.000000e+00
    outer loop
      vertex   1.500000e+00 1.000000e+00 0.000000e+00
      vertex   -1.500000e+00 1.000000e+00 3.000000e-01
      vertex   1.098076e+00 1.000000e+00 1.500000e+00
    endloop
  endfacet
  facet normal 0.000000e+00 1.000000e+00 0.000000e+00
    outer loop
      vertex   1.098076e+00 1.000000e+00 1.500000e+00
      vertex   -1.500000e+00 1.000000e+00 3.000000e-01
      vertex   -1.500000e+00 1.000000e+00 1.500000e+00
    endloop
  endfacet
  facet normal -1.000000e+00 0.000000e+00 0.000000e+00
    outer loop
      vertex   -1.500000e+00 -1.000000e+00 3.000000e-01
      vertex   -1.500000e+00 -1.000000e+00 4.250227e-01
      vertex   -1.500000e+00 1.000000e+00 3.000000e-01
    endloop
  endfacet
  facet normal -1.000000e+00 0.000000e+00 0.000000e+00
    outer loop
      vertex   -1.500000e+00 1.000000e+00 3.000000e-01
      vertex   -1.500000e+00 -1.000000e+00 4.250227e-01
      vertex   -1.500000e+00 -1.034248e-01 1.403463e+00
    endloop
  endfacet
  facet normal -1.000000e+00 0.000000e+00 0.000000e+00
    outer loop
      vertex   -1.500000e+00 1.000000e+00 3.000000e-01
      vertex   -1.500000e+00 -1.034248e-01 1.403463e+00
      vertex   -1.500000e+00 1.000000e+00 1.500000e+00
    endloop
  endfacet
  facet normal -1.683549e-16 -7.372773e-01 6.755902e-01
    outer loop
      vertex   4.644075e-01 -1.034248e-01 1.403463e+00
      vertex   -1.500000e+00 -1.034248e-01 1.403463e+00
      vertex   1.906816e-01 -1.000000e+00 4.250227e-01
    endloop
  endfacet
  facet normal 0.000000e+00 -7.372773e-01 6.755902e-01
    outer loop
      vertex   1.906816e-01 -1.000000e+00 4.250227e-01
      vertex   -1.500000e+00 -1.034248e-01 1.403463e+00
      vertex   -1.500000e+00 -1.000000e+00 4.250227e-01
    endloop
  endfacet
  facet normal -2.270547e-16 -8.715574e-02 9.961947e-01
    outer loop
      vertex   -1.500000e+00 -1.034248e-01 1.403463e+00
      vertex   4.644075e-01 -1.034248e-01 1.403463e+00
      vertex   -1.500000e+00 1.000000e+00 1.500000e+00
    endloop
  endfacet
  facet normal 0.000000e+00 -8.715574e-02 9.961947e-01
    outer loop
      vertex   -1.500000e+00 1.000000e+00 1.500000e+00
      vertex   4.644075e-01 -1.034248e-01 1.403463e+00
      vertex   1.098076e+00 1.000000e+00 1.500000e+00
    endloop
  endfacet
  facet normal 0.000000e+00 -1.000000e+00 0.000000e+00
    outer loop
      vertex   -1.500000e+00 -1.000000e+00 4.250227e-01
      vertex   -1.500000e+00 -1.000000e+00 3.000000e-01
      vertex   1.906816e-01 -1.000000e+00 4.250227e-01
    endloop
  endfacet
  facet normal 0.000000e+00 -1.000000e+00 0.000000e+00
    outer loop
      vertex   1.906816e-01 -1.000000e+00 4.250227e-01
      vertex   -1.500000e+00 -1.000000e+00 3.000000e-01
      vertex   -1.200000e+00 -1.000000e+00 0.000000e+00
    endloop
  endfacet
  facet normal 0.000000e+00 -1.000000e+00 -0.000000e+00
    outer loop
      vertex   1.906816e-01 -1.000000e+00 4.250227e-01
      vertex   -1.200000e+00 -1.000000e+00 0.000000e+00
      vertex   3.045660e-01 -1.000000e+00 0.000000e+00
    endloop
  endfacet
  facet normal 8.365163e-01 -5.000000e-01 2.241439e-01
    outer loop
      vertex   1.098076e+00 1.000000e+00 1.500000e+00
      vertex   4.644075e-01 -1.034248e-01 1.403463e+00
      vertex   1.500000e+00 1.000000e+00 0.000000e+00
    endloop
  endfacet
  facet normal 8.365163e-01 -5.000000e-01 2.241439e-01
    outer loop
      vertex   1.500000e+00 1.000000e+00 0.000000e+00
      vertex   4.644075e-01 -1.034248e-01 1.403463e+00
      vertex   1.906816e-01 -1.000000e+00 4.250227e-01
    endloop
  endfacet
  facet normal 8.365163e-01 -5.000000e-01 2.241439e-01
    outer loop
      vertex   1.500000e+00 1.000000e+00 0.000000e+00
      vertex   1.906816e-01 -1.000000e+00 4.250227e-01
      vertex   3.045660e-01 -1.000000e+00 0.000000e+00
    endloop
  endfacet
  facet normal 0.000000e+00 0.000000e+00 -1.000000e+00
    outer loop
      vertex   -1.200000e+00 -1.000000e+00 0.000000e+00
      vertex   -1.200000e+00 1.000000e+00 0.000000e+00
      vertex   3.045660e-01 -1.000000e+00 0.000000e+00
    endloop
  endfacet
  facet normal 0.000000e+00 0.000000e+00 -1.000000e+00
    outer loop
      vertex   3.045660e-01 -1.000000e+00 0.000000e+00
      vertex   -1.200000e+00 1.000000e+00 0.000000e+00
      vertex   1.500000e+00 1.000000e+00 0.000000e+00
    endloop
  endfacet
endsolid
